<mxfile host="app.diagrams.net" agent="Mozilla/5.0 (Macintosh; Intel Mac OS X 10_15_7) AppleWebKit/537.36 (KHTML, like Gecko) Chrome/135.0.0.0 Safari/537.36" version="26.0.2">
  <diagram name="Page-1" id="fCLllDT2Xd9ZJVLPbpaq">
    <mxGraphModel dx="540" dy="541" grid="1" gridSize="10" guides="1" tooltips="1" connect="1" arrows="1" fold="1" page="1" pageScale="1" pageWidth="850" pageHeight="1100" math="0" shadow="0">
      <root>
        <mxCell id="0" />
        <mxCell id="1" parent="0" />
        <mxCell id="3DnTtLp8lslIY7WN3dXD-1" value="AWS Management Account" style="points=[[0,0],[0.25,0],[0.5,0],[0.75,0],[1,0],[1,0.25],[1,0.5],[1,0.75],[1,1],[0.75,1],[0.5,1],[0.25,1],[0,1],[0,0.75],[0,0.5],[0,0.25]];outlineConnect=0;gradientColor=none;html=1;whiteSpace=wrap;fontSize=12;fontStyle=0;container=0;pointerEvents=0;collapsible=0;recursiveResize=0;shape=mxgraph.aws4.group;grIcon=mxgraph.aws4.group_account;strokeColor=#CD2264;fillColor=none;verticalAlign=top;align=left;spacingLeft=30;fontColor=#CD2264;dashed=0;" vertex="1" parent="1">
          <mxGeometry x="60" y="30" width="450" height="430" as="geometry" />
        </mxCell>
        <mxCell id="3DnTtLp8lslIY7WN3dXD-2" value="AWS Identity Center" style="shape=image;verticalLabelPosition=bottom;labelBackgroundColor=default;verticalAlign=top;aspect=fixed;imageAspect=0;image=https://cloud-icons.onemodel.app/aws/Architecture-Service-Icons_01312023/Arch_Security-Identity-Compliance/64/Arch_AWS-IAM-Identity-Center_64@5x.png;" vertex="1" parent="1">
          <mxGeometry x="220" y="370" width="50" height="50" as="geometry" />
        </mxCell>
        <mxCell id="3DnTtLp8lslIY7WN3dXD-3" value="Public subnet" style="points=[[0,0],[0.25,0],[0.5,0],[0.75,0],[1,0],[1,0.25],[1,0.5],[1,0.75],[1,1],[0.75,1],[0.5,1],[0.25,1],[0,1],[0,0.75],[0,0.5],[0,0.25]];outlineConnect=0;gradientColor=none;html=1;whiteSpace=wrap;fontSize=12;fontStyle=0;container=1;pointerEvents=0;collapsible=0;recursiveResize=0;shape=mxgraph.aws4.group;grIcon=mxgraph.aws4.group_security_group;grStroke=0;strokeColor=#7AA116;fillColor=#F2F6E8;verticalAlign=top;align=left;spacingLeft=30;fontColor=#248814;dashed=0;" vertex="1" parent="1">
          <mxGeometry x="110" y="70" width="370" height="280" as="geometry" />
        </mxCell>
        <mxCell id="3DnTtLp8lslIY7WN3dXD-5" value="" style="rounded=0;whiteSpace=wrap;html=1;fillColor=none;" vertex="1" parent="3DnTtLp8lslIY7WN3dXD-3">
          <mxGeometry x="50" y="60" width="290" height="200" as="geometry" />
        </mxCell>
        <mxCell id="3DnTtLp8lslIY7WN3dXD-4" value="EC2" style="sketch=0;points=[[0,0,0],[0.25,0,0],[0.5,0,0],[0.75,0,0],[1,0,0],[0,1,0],[0.25,1,0],[0.5,1,0],[0.75,1,0],[1,1,0],[0,0.25,0],[0,0.5,0],[0,0.75,0],[1,0.25,0],[1,0.5,0],[1,0.75,0]];outlineConnect=0;fontColor=#232F3E;fillColor=#ED7100;strokeColor=#ffffff;dashed=0;verticalLabelPosition=bottom;verticalAlign=top;align=center;html=1;fontSize=12;fontStyle=0;aspect=fixed;shape=mxgraph.aws4.resourceIcon;resIcon=mxgraph.aws4.ec2;" vertex="1" parent="3DnTtLp8lslIY7WN3dXD-3">
          <mxGeometry x="50" y="60" width="50" height="50" as="geometry" />
        </mxCell>
        <mxCell id="3DnTtLp8lslIY7WN3dXD-10" style="edgeStyle=orthogonalEdgeStyle;rounded=0;orthogonalLoop=1;jettySize=auto;html=1;" edge="1" parent="3DnTtLp8lslIY7WN3dXD-3" source="3DnTtLp8lslIY7WN3dXD-6" target="3DnTtLp8lslIY7WN3dXD-9">
          <mxGeometry relative="1" as="geometry">
            <Array as="points">
              <mxPoint x="200" y="160" />
              <mxPoint x="200" y="105" />
            </Array>
          </mxGeometry>
        </mxCell>
        <mxCell id="3DnTtLp8lslIY7WN3dXD-19" style="edgeStyle=orthogonalEdgeStyle;rounded=0;orthogonalLoop=1;jettySize=auto;html=1;entryX=0;entryY=0.5;entryDx=0;entryDy=0;" edge="1" parent="3DnTtLp8lslIY7WN3dXD-3" source="3DnTtLp8lslIY7WN3dXD-6" target="3DnTtLp8lslIY7WN3dXD-18">
          <mxGeometry relative="1" as="geometry">
            <Array as="points">
              <mxPoint x="200" y="160" />
              <mxPoint x="200" y="205" />
            </Array>
          </mxGeometry>
        </mxCell>
        <mxCell id="3DnTtLp8lslIY7WN3dXD-6" value="Caddy&#xa;Webserver" style="shape=image;verticalLabelPosition=bottom;labelBackgroundColor=none;verticalAlign=top;aspect=fixed;imageAspect=0;image=https://caddyserver.com/old/resources/images/caddy-lock.png;fontColor=default;" vertex="1" parent="3DnTtLp8lslIY7WN3dXD-3">
          <mxGeometry x="110" y="135" width="50" height="50" as="geometry" />
        </mxCell>
        <mxCell id="3DnTtLp8lslIY7WN3dXD-9" value="Authentik" style="shape=image;verticalLabelPosition=bottom;labelBackgroundColor=none;verticalAlign=top;aspect=fixed;imageAspect=0;image=https://elest.io/images/softwares/174/logo.png;" vertex="1" parent="3DnTtLp8lslIY7WN3dXD-3">
          <mxGeometry x="240" y="75" width="60" height="60" as="geometry" />
        </mxCell>
        <mxCell id="3DnTtLp8lslIY7WN3dXD-18" value="Grafana" style="shape=image;verticalLabelPosition=bottom;labelBackgroundColor=none;verticalAlign=top;aspect=fixed;imageAspect=0;image=https://images.icon-icons.com/2699/PNG/512/grafana_logo_icon_171049.png;clipPath=inset(15.33% 63.67% 16.67% 4.67%);" vertex="1" parent="3DnTtLp8lslIY7WN3dXD-3">
          <mxGeometry x="246.72" y="180" width="46.57" height="50" as="geometry" />
        </mxCell>
        <mxCell id="3DnTtLp8lslIY7WN3dXD-8" value="Route53" style="sketch=0;points=[[0,0,0],[0.25,0,0],[0.5,0,0],[0.75,0,0],[1,0,0],[0,1,0],[0.25,1,0],[0.5,1,0],[0.75,1,0],[1,1,0],[0,0.25,0],[0,0.5,0],[0,0.75,0],[1,0.25,0],[1,0.5,0],[1,0.75,0]];outlineConnect=0;fontColor=#232F3E;fillColor=#8C4FFF;strokeColor=#ffffff;dashed=0;verticalLabelPosition=bottom;verticalAlign=top;align=center;html=1;fontSize=12;fontStyle=0;aspect=fixed;shape=mxgraph.aws4.resourceIcon;resIcon=mxgraph.aws4.route_53;" vertex="1" parent="1">
          <mxGeometry x="350" y="370" width="50" height="50" as="geometry" />
        </mxCell>
      </root>
    </mxGraphModel>
  </diagram>
</mxfile>
